<svg width="4548" height="924" viewBox="0 0 4548 924" fill="none" xmlns="http://www.w3.org/2000/svg" preserveAspectRatio="none">
<path d="M311.093 922.779C315.493 922.512 352.693 920.779 393.76 919.045C544.026 912.245 643.226 906.779 646.16 905.179C647.226 904.512 643.36 903.179 636.56 901.845C616.826 897.979 605.093 892.912 605.093 888.379C605.093 885.712 617.093 881.312 629.893 879.045C636.426 877.979 674.693 875.312 715.093 873.045C1009.89 856.645 1278.03 840.379 1561.76 821.712C1900.29 799.312 2005.36 790.245 2194.43 767.045C2229.23 762.779 2279.76 758.245 2371.09 751.045C2601.23 733.045 2617.49 731.712 2644.83 728.379C2690.69 722.779 2783.36 707.712 2778.16 706.645C2777.09 706.379 2743.36 708.379 2703.09 711.045C2662.96 713.579 2621.76 715.712 2611.63 715.712C2594.83 715.712 2593.09 715.445 2591.76 713.179C2589.76 709.312 2590.16 707.845 2593.36 706.379C2595.09 705.579 2896.69 675.045 3263.76 638.379C3931.09 571.712 4019.49 562.645 4044.43 559.045L4057.76 557.179L4043.09 557.712C4034.96 558.112 3953.36 564.912 3861.76 572.912C3633.76 593.045 3509.49 603.712 3329.09 618.912C3113.23 637.179 2976.43 648.245 2925.89 651.712C2881.09 654.645 2842.43 656.379 2842.43 655.445C2842.43 655.045 2848.29 653.979 2855.36 653.179C2904.69 647.045 3027.09 629.579 3117.63 615.579C3155.89 609.712 3182.96 606.379 3221.63 602.912C3260.16 599.445 3283.09 596.645 3309.76 592.245C3352.56 585.045 3431.23 570.779 3458.43 565.179C3469.09 563.045 3497.63 559.045 3521.76 556.379C3546.03 553.712 3566.69 551.045 3567.76 550.645C3568.83 550.112 3564.29 549.445 3557.76 549.045L3545.76 548.379L3646.43 529.179L3747.09 509.979L3800.83 509.312C3853.36 508.779 3908.16 510.112 3971.76 513.579C3988.96 514.512 4003.23 515.312 4003.36 515.179C4003.36 515.179 3998.83 503.045 3993.09 488.379C3987.36 473.712 3982.83 461.579 3983.09 461.312C3983.23 461.045 3996.56 457.579 4012.56 453.579C4038.96 447.045 4073.23 437.445 4086.96 432.779C4092.29 431.045 4092.43 430.912 4105.76 401.845C4114.96 381.979 4120.03 372.379 4121.76 371.712C4123.23 371.179 4127.49 370.245 4131.09 369.845C4142.43 368.245 4142.96 366.379 4132.03 366.379C4126.83 366.379 4122.43 366.245 4122.43 365.979C4122.43 365.845 4128.43 352.779 4135.76 337.045C4143.09 321.312 4149.23 307.845 4149.49 307.312C4149.63 306.779 4195.36 301.579 4251.09 295.712C4469.89 273.045 4547.76 264.112 4547.76 262.112C4547.76 261.579 4546.16 261.045 4544.03 261.045C4527.89 261.045 4414.83 272.112 4191.23 295.712C4170.69 297.845 4153.76 299.579 4153.63 299.312C4153.49 299.179 4168.03 267.312 4186.03 228.512C4203.89 189.712 4218.16 157.579 4217.49 157.045C4216.96 156.512 4178.16 133.445 4131.49 105.979L4046.43 55.8453L4016.16 53.5787C3999.36 52.3787 3960.69 51.0453 3930.16 50.512L3874.43 49.712L3903.76 25.1787C3919.89 11.712 3933.09 0.511989 3933.09 0.378656C3933.09 0.111989 3929.36 1.04532 3924.69 2.51199C3905.89 8.24532 3834.03 23.9787 3740.43 42.7787L3684.43 54.112L3603.76 56.912C3559.36 58.512 3496.43 60.6453 3463.76 61.712C3431.09 62.912 3378.56 64.6453 3347.09 65.712C3315.49 66.7787 3277.09 68.112 3261.63 68.512L3233.49 69.4453L3232.69 66.2453C3232.29 64.512 3231.49 59.0453 3231.09 54.112L3230.16 45.0453H3211.89C3201.76 45.0453 3176.29 45.9787 3154.96 47.0453C2963.09 57.0453 2829.09 65.5787 2704.69 75.712C2677.76 77.9787 2654.03 79.8453 2652.03 79.9787C2650.03 80.112 2654.96 80.512 2663.09 81.0453C2689.23 82.6453 2800.43 80.112 2926.43 74.912C2976.96 72.7787 3025.09 73.1787 3025.09 75.712C3025.09 76.2453 3009.36 77.0453 2990.03 77.5787C2970.83 78.112 2938.56 79.0453 2918.43 79.712C2863.49 81.5787 2735.76 85.1787 2635.09 87.712C2513.63 90.6453 2434.69 91.8453 2289.09 93.0453C2150.83 94.112 2102.03 95.1787 1963.76 99.712C1898.69 101.845 1784.29 107.979 1539.09 122.379C1346.16 133.712 1402.29 129.979 684.426 179.712L107.093 219.712L55.2262 231.179C26.6929 237.445 2.29286 243.045 1.09286 243.445C-0.907138 244.245 2.95953 272.512 38.2929 515.712L77.7595 786.912L82.4262 787.979C91.2262 789.845 183.226 791.712 225.226 790.779L267.36 789.979L269.626 793.312C273.893 799.712 274.826 816.779 274.026 871.445L273.36 923.712L288.293 923.445C296.426 923.312 306.693 923.045 311.093 922.779Z" fill="#000" fill-opacity="1"/>
</svg>
