<svg width="48" height="48" viewBox="0 0 48 48" fill="none" xmlns="http://www.w3.org/2000/svg">
<path d="M48 23.9628C48 37.1971 37.2548 47.9256 24 47.9256C10.7452 47.9256 0 37.1971 0 23.9628C0 10.7285 10.7452 0 24 0C37.2548 0 48 10.7285 48 23.9628Z" fill="#DDCCFF"/>
<path fill-rule="evenodd" clip-rule="evenodd" d="M24 43.5488C34.8339 43.5488 43.6164 34.7799 43.6164 23.9628C43.6164 13.1457 34.8339 4.37677 24 4.37677C13.1661 4.37677 4.38356 13.1457 4.38356 23.9628C4.38356 34.7799 13.1661 43.5488 24 43.5488ZM24 47.9256C37.2548 47.9256 48 37.1971 48 23.9628C48 10.7285 37.2548 0 24 0C10.7452 0 0 10.7285 0 23.9628C0 37.1971 10.7452 47.9256 24 47.9256Z" fill="#330099"/>
<path d="M40.1096 31.9504C40.1096 40.7733 32.9461 47.9256 24.1096 47.9256C15.273 47.9256 8.10959 40.7733 8.10959 31.9504C8.10959 23.1275 15.273 15.9752 24.1096 15.9752C32.9461 15.9752 40.1096 23.1275 40.1096 31.9504Z" fill="#9966FF"/>
<path fill-rule="evenodd" clip-rule="evenodd" d="M24.1096 43.5488C30.5252 43.5488 35.726 38.356 35.726 31.9504C35.726 25.5448 30.5252 20.352 24.1096 20.352C17.694 20.352 12.4932 25.5448 12.4932 31.9504C12.4932 38.356 17.694 43.5488 24.1096 43.5488ZM24.1096 47.9256C32.9461 47.9256 40.1096 40.7733 40.1096 31.9504C40.1096 23.1275 32.9461 15.9752 24.1096 15.9752C15.273 15.9752 8.10959 23.1275 8.10959 31.9504C8.10959 40.7733 15.273 47.9256 24.1096 47.9256Z" fill="#330099"/>
<path d="M34.7047 37.3491C34.7047 43.2314 29.9287 48 24.0373 48C18.1458 48 13.3699 43.2314 13.3699 37.3491C13.3699 31.4668 18.1458 26.6983 24.0373 26.6983C29.9287 26.6983 34.7047 31.4668 34.7047 37.3491Z" fill="#5500FF"/>
<path fill-rule="evenodd" clip-rule="evenodd" d="M24.0373 43.6232C27.5077 43.6232 30.3211 40.8142 30.3211 37.3491C30.3211 33.884 27.5077 31.075 24.0373 31.075C20.5668 31.075 17.7534 33.884 17.7534 37.3491C17.7534 40.8142 20.5668 43.6232 24.0373 43.6232ZM24.0373 48C29.9287 48 34.7047 43.2314 34.7047 37.3491C34.7047 31.4668 29.9287 26.6983 24.0373 26.6983C18.1458 26.6983 13.3699 31.4668 13.3699 37.3491C13.3699 43.2314 18.1458 48 24.0373 48Z" fill="#330099"/>
</svg>
