<svg width="118" height="48" viewBox="0 0 118 48" fill="none" xmlns="http://www.w3.org/2000/svg">
<path d="M48 23.9628C48 37.1971 37.2548 47.9256 24 47.9256C10.7452 47.9256 0 37.1971 0 23.9628C0 10.7285 10.7452 0 24 0C37.2548 0 48 10.7285 48 23.9628Z" fill="#DDCCFF"/>
<path fill-rule="evenodd" clip-rule="evenodd" d="M24 43.5488C34.8339 43.5488 43.6164 34.7799 43.6164 23.9628C43.6164 13.1457 34.8339 4.37677 24 4.37677C13.1661 4.37677 4.38356 13.1457 4.38356 23.9628C4.38356 34.7799 13.1661 43.5488 24 43.5488ZM24 47.9256C37.2548 47.9256 48 37.1971 48 23.9628C48 10.7285 37.2548 0 24 0C10.7452 0 0 10.7285 0 23.9628C0 37.1971 10.7452 47.9256 24 47.9256Z" fill="#330099"/>
<path d="M40.1096 31.9504C40.1096 40.7733 32.9461 47.9256 24.1096 47.9256C15.273 47.9256 8.10959 40.7733 8.10959 31.9504C8.10959 23.1275 15.273 15.9752 24.1096 15.9752C32.9461 15.9752 40.1096 23.1275 40.1096 31.9504Z" fill="#9966FF"/>
<path fill-rule="evenodd" clip-rule="evenodd" d="M24.1096 43.5488C30.5252 43.5488 35.726 38.356 35.726 31.9504C35.726 25.5448 30.5252 20.352 24.1096 20.352C17.694 20.352 12.4932 25.5448 12.4932 31.9504C12.4932 38.356 17.694 43.5488 24.1096 43.5488ZM24.1096 47.9256C32.9461 47.9256 40.1096 40.7733 40.1096 31.9504C40.1096 23.1275 32.9461 15.9752 24.1096 15.9752C15.273 15.9752 8.10959 23.1275 8.10959 31.9504C8.10959 40.7733 15.273 47.9256 24.1096 47.9256Z" fill="#330099"/>
<path d="M34.7047 37.3491C34.7047 43.2314 29.9287 48 24.0373 48C18.1458 48 13.3699 43.2314 13.3699 37.3491C13.3699 31.4668 18.1458 26.6983 24.0373 26.6983C29.9287 26.6983 34.7047 31.4668 34.7047 37.3491Z" fill="#5500FF"/>
<path fill-rule="evenodd" clip-rule="evenodd" d="M24.0373 43.6232C27.5077 43.6232 30.3211 40.8142 30.3211 37.3491C30.3211 33.884 27.5077 31.075 24.0373 31.075C20.5668 31.075 17.7534 33.884 17.7534 37.3491C17.7534 40.8142 20.5668 43.6232 24.0373 43.6232ZM24.0373 48C29.9287 48 34.7047 43.2314 34.7047 37.3491C34.7047 31.4668 29.9287 26.6983 24.0373 26.6983C18.1458 26.6983 13.3699 31.4668 13.3699 37.3491C13.3699 43.2314 18.1458 48 24.0373 48Z" fill="#330099"/>
<path d="M68.0997 33.2C66.6268 33.2 65.2679 32.9633 64.023 32.4899C62.7956 32.0164 61.726 31.3589 60.8142 30.5173C59.92 29.6581 59.2274 28.6411 58.7364 27.4663C58.2455 26.2915 58 25.0027 58 23.6C58 22.1973 58.2455 20.9085 58.7364 19.7337C59.2449 18.5589 59.9551 17.5507 60.8668 16.709C61.7786 15.8499 62.857 15.1836 64.1019 14.7101C65.3644 14.2367 66.7496 14 68.2575 14C69.1167 14 69.9584 14.1052 70.7825 14.3156C71.6241 14.5085 72.4132 14.8153 73.1496 15.2362C73.9036 15.6395 74.5874 16.1567 75.2011 16.7879L71.8082 20.7595C71.5627 20.4614 71.2647 20.1896 70.914 19.9441C70.5808 19.6986 70.1863 19.5058 69.7304 19.3655C69.2921 19.2077 68.7836 19.1288 68.2049 19.1288C67.6088 19.1288 67.0389 19.234 66.4953 19.4444C65.9693 19.6373 65.5047 19.9266 65.1014 20.3123C64.7156 20.6981 64.4088 21.1715 64.1808 21.7326C63.9529 22.2937 63.8389 22.9425 63.8389 23.6789C63.8389 24.3452 63.9529 24.9501 64.1808 25.4937C64.4088 26.0373 64.7332 26.5019 65.154 26.8877C65.5748 27.2734 66.0833 27.5715 66.6795 27.7819C67.2756 27.9923 67.9419 28.0975 68.6784 28.0975C69.2044 28.0975 69.7041 28.0186 70.1775 27.8608C70.651 27.703 71.0805 27.5014 71.4663 27.2559C71.8521 26.9929 72.1852 26.7036 72.4658 26.3879L75.1748 30.6488C74.7189 31.1397 74.114 31.5781 73.36 31.9638C72.606 32.3496 71.7732 32.6564 70.8614 32.8844C69.9496 33.0948 69.029 33.2 68.0997 33.2Z" fill="#330099"/>
<path d="M77.5966 32.937V14.526H82.4886L89.1955 25.4411L85.224 25.4148L92.0097 14.526H96.744V32.937H91.2733V28.5447C91.2733 26.9666 91.3084 25.5463 91.3785 24.2838C91.4662 23.0214 91.6064 21.7677 91.7993 20.5227L92.4305 22.1797L87.9856 29.0707H86.2497L81.8837 22.1797L82.5412 20.5227C82.7341 21.6975 82.8656 22.9074 82.9358 24.1523C83.0234 25.3797 83.0673 26.8438 83.0673 28.5447V32.937H77.5966Z" fill="#330099"/>
<path d="M111.912 32.937V14.526H117.593V32.937H111.912ZM100.944 32.937V14.526H106.625V32.937H100.944ZM103.075 26.2301L103.101 21.2855H115.121V26.2301H103.075Z" fill="#330099"/>
</svg>
